# xmcd
# 
# Track frame offsets:
#     150
#     13991
#     28755
#     41949
#     57555
#     69628
#     87870
#     103575
#     116922
#     131779
#     145999
#     161431
# 
# Disc length: 2378
# 
# Revision: 1
# Processed by: cddbd v1.5.2PL0 Copyright (c) Steve Scherf et al.
# Submitted via: fre:ac v1.0.31
# 
DISCID=b509480c
DTITLE=Ricchi E Poveri - Le Canzoni La Nostra Storia CD1
DYEAR=2011
DGENRE=Disco
TTITLE0=Sara perche ti amo
TTITLE1=M'innamoro di te
TTITLE2=Mamma Maria
TTITLE3=Se m' innamoro
TTITLE4=Questa Sera
TTITLE5=Canzone d'amore
TTITLE6=Dimmi Quando
TTITLE7=Come vorrei
TTITLE8=Cosa sei (Que Sere)
TTITLE9=E penso a te
TTITLE10=Made in Italy
TTITLE11=Acapulco
EXTD=
EXTT0=
EXTT1=
EXTT2=
EXTT3=
EXTT4=
EXTT5=
EXTT6=
EXTT7=
EXTT8=
EXTT9=
EXTT10=
EXTT11=
PLAYORDER=
